<svg xmlns="http://www.w3.org/2000/svg" fill="none" viewBox="0 0 24 24" stroke-width="1.5" stroke="currentColor">
  <path stroke-linecap="round" stroke-linejoin="round" d="M12 2.25c-3.404 0-6.75 2.596-6.75 6.75 0 2.72 1.908 5.101 4.466 6.288-.24.816-.842 1.836-2.12 3.088l-1.847 2.006a.75.75 0 101.18.94l1.845-2.005c1.143-1.244 1.869-2.244 2.226-3.201.356.957 1.083 1.957 2.226 3.201l1.845 2.005a.75.75 0 101.18-.94l-1.847-2.006c-1.278-1.252-1.88-2.272-2.12-3.088 2.558-1.187 4.466-3.568 4.466-6.288 0-4.154-3.346-6.75-6.75-6.75z" />
</svg>
